<svg id="Camada_1" data-name="Camada 1" xmlns="http://www.w3.org/2000/svg" width="120" height="24" viewBox="0 0 120 24"><path d="M98.3973-.5508q2.592,2.6019,5.1841,5.2036,3.112,3.1215,6.2254,6.2416c.0482.0483.094.099.1266.1335L98.36,22.6012l-.431-.4076,11.11-11.11L97.9108-.0457l.4451-.5051Z" fill="#fff"/><path d="M60.5075-.52q-2.592,2.6019-5.1841,5.2036-3.1119,3.1215-6.2253,6.2416c-.0482.0483-.0941.099-.1266.1335L60.5444,22.6316l.431-.4076-11.11-11.11L60.9941-.0153,60.5489-.52Z" fill="#fff"/><path d="M9.4957,12.5421,17.044,4.9969l.4919.4979-7.4938,7.49,7.54,7.5354-.5509.5192-7.5-7.4962L2.0148,21.0556l-.51-.5258L9.01,13.03,1.4782,5.5029l.4952-.4794Z"/></svg>